<?xml version="1.0" encoding="utf-8"?>
<!-- Generator: Adobe Illustrator 24.3.2, SVG Export Plug-In . SVG Version: 6.00 Build 0)  -->
<svg version="1.1" id="Layer_1" xmlns="http://www.w3.org/2000/svg" xmlns:xlink="http://www.w3.org/1999/xlink" x="0px" y="0px"
	 viewBox="0 0 225 46" style="enable-background:new 0 0 225 46;" xml:space="preserve">
<style type="text/css">
	.st0{fill:#8BA6D1;}
	.st1{fill:#00217A;}
</style>
<g>
	<path class="st0" d="M214,23h8.1c-4.3-2.1-7.7-5.6-9.9-9.9v0C208.6,6.1,201.8,2,193,1.2l0.2,0.6c6.1,2.5,10.4,6.4,12.8,11.9l0,0
		C207.7,17.5,210.5,20.7,214,23"/>
	<path class="st1" d="M214,23h8.1c-4.3,2.1-7.7,5.6-9.9,9.9v0c-3.5,7-10.3,11.1-19.2,11.9l0.2-0.6c6.1-2.5,10.4-6.4,12.8-11.9l0,0
		C207.7,28.5,210.5,25.3,214,23"/>
	<path class="st0" d="M193,8.3c1.5,5.4,3.4,9.9,5.1,12.1l0,0c0.9,1.1,2,2.1,3.4,2.7h6.3c-3-1.3-5.4-3.7-6.7-6.7l0,0
		C199.6,12.7,196.6,9.8,193,8.3"/>
	<path class="st1" d="M193,37.7c1.5-5.4,3.4-9.9,5.1-12.1l0,0c0.9-1.1,2-2.1,3.4-2.7h6.3c-3,1.3-5.4,3.7-6.7,6.7l0,0
		C199.6,33.3,196.6,36.2,193,37.7"/>
	<path class="st1" d="M57.5,33.3l0.7-3.6H40.7v-4.6h13.9c0,0,0,0,0,0v-4.2h-14v-4.6h15.7c0.4,0,0.7-0.3,0.8-0.7l0.6-3.6H36.5
		c-0.4,0-0.7,0.3-0.7,0.7v21.1h21C57.2,33.9,57.4,33.6,57.5,33.3"/>
	<path class="st1" d="M116.3,33.3l0.7-3.6H99.5v-4.6h13.9c0,0,0,0,0,0v-4.2h-14v-4.6h15.7c0.4,0,0.7-0.3,0.8-0.7l0.6-3.6H95.3
		c-0.4,0-0.7,0.3-0.7,0.7v21.1h21C116,33.9,116.3,33.6,116.3,33.3"/>
	<path class="st1" d="M157.7,18.5L173,33.3c0.4,0.4,0.9,0.6,1.4,0.6h3.6V12h-4c-0.4,0-0.8,0.3-0.8,0.8v14l-14.8-14.3
		c-0.4-0.3-0.8-0.5-1.3-0.5h-4.3v21.9h4.9L157.7,18.5z"/>
	<path class="st1" d="M17.1,17.1l4.1,7.8H13L17.1,17.1z M10.4,29.9c0.2-0.5,0.7-0.7,1.2-0.7h11.8l2.1,4c0.2,0.4,0.7,0.7,1.1,0.7h4.8
		l-11-21C20.2,12.4,19.6,12,19,12h-4.6L3,33.9h5.4L10.4,29.9z"/>
	<path class="st1" d="M134.1,17.1l4.1,7.8H130L134.1,17.1z M127.4,29.9c0.2-0.5,0.7-0.7,1.2-0.7h11.8l2.1,4c0.2,0.4,0.7,0.7,1.1,0.7
		h4.8l-11-21c-0.3-0.5-0.8-0.9-1.5-0.9h-4.6l-11.4,21.9h5.4L127.4,29.9z"/>
	<path class="st1" d="M88,31.1v-9.6h-9.2V25c0,0.4,0.3,0.7,0.7,0.7h3.6v2.9c-1.3,0.9-4.3,1.5-7.4,1.5c-5.1,0-8.3-2.7-8.2-7.1
		c0.1-4.4,3.2-7.1,8.3-7.1c3.5,0,6.6,0.8,9.5,2.4l2.2-4.1c-5.9-3-11.1-2.8-11.6-2.8c-7.8,0-13.3,4.8-13.3,11.6
		c0,6.9,5.2,11.6,13,11.6C83.8,34.6,88,31.1,88,31.1"/>
</g>
</svg>
